<svg xmlns="http://www.w3.org/2000/svg" xmlns:xlink="http://www.w3.org/1999/xlink" width="501.199" height="453.906" viewBox="0 0 501.199 453.906">
  <defs>
    <clipPath id="clip-path">
      <path id="Path_12" data-name="Path 12" d="M990.783,928.627a35.227,35.227,0,0,0,35.225,35.225h391.249a35.227,35.227,0,0,0,35.225-35.225V690.579h-461.7Z" transform="translate(-990.783 -690.579)" fill="none"/>
    </clipPath>
  </defs>
  <g id="Group_23" data-name="Group 23" transform="translate(-990.294 -393.916)">
    <g id="Group_13" data-name="Group 13" transform="translate(990.294 574.55)">
      <g id="Group_12" data-name="Group 12" clip-path="url(#clip-path)">
        <path id="Path_4" data-name="Path 4" d="M990.783,928.627a35.227,35.227,0,0,0,35.225,35.225h391.249a35.227,35.227,0,0,0,35.225-35.225V690.579h-461.7Z" transform="translate(-990.783 -690.579)" fill="#fff"/>
        <path id="Path_5" data-name="Path 5" d="M908.257,769.64c5.4-17.3,22.471-30.585,41.127-31.992s37.694,9.153,45.859,25.436a28.542,28.542,0,0,1,24.532,13.8,26.545,26.545,0,0,1-.855,27.4,38.743,38.743,0,0,1,27.665,20.277,36.35,36.35,0,0,1-.742,33.514,44.489,44.489,0,0,1,42.131,1.525c12.484,7.537,20.347,21.727,19.911,35.933,8.1-12.711,23.642-20.634,39.089-19.93s30.173,10.006,37.045,23.4c7.252-21.7,26.588-39.214,49.467-44.812s48.549.907,65.67,16.641c25.751,4.029,44.521,31.991,37.812,56.33,13.911,11.511,21.021,30.226,18.112,47.679s-15.733,33.037-32.673,39.7l-443.077-.287L841.559,845.212Z" transform="translate(-932.419 -708.939)" fill="#b6f5f1"/>
        <g id="Group_10" data-name="Group 10" transform="translate(-95.692 84.689)" opacity="0.8">
          <path id="Path_6" data-name="Path 6" d="M898.125,861.82c5.228-17.309,21.735-30.6,39.76-32.024s36.411,9.123,44.287,25.4a26.772,26.772,0,0,1,22.842,41.18,36.859,36.859,0,0,1,25.968,53.769,40.877,40.877,0,0,1,59.912,37.409,42.093,42.093,0,0,1,73.554,3.409A67.818,67.818,0,0,1,1275.71,962.7c24.876,4.008,42.987,31.955,36.486,56.3a51.85,51.85,0,0,1-14.136,87.393l-428.076.064L833.624,937.444Z" transform="translate(-833.624 -829.668)" fill="#fff"/>
        </g>
        <g id="Group_11" data-name="Group 11" transform="translate(-32.207 7.621)">
          <path id="Path_7" data-name="Path 7" d="M1279.234,703.095C1151,823.689,1060.062,856.206,945.5,867.833L937.888,989.61l120.255,41.1c105.033-3.044,205.884-155.1,268.18-285.538l-47.089-42.076" transform="translate(-937.888 -703.095)" fill="#fff2e0" opacity="0.7"/>
          <path id="Path_8" data-name="Path 8" d="M1470.749,705.669c-20.849,24.666-52.292,48.261-89.378,80.129l50.6-20.624c-6.2,10.283-15.24,24.672-20.307,30.844,11.663-5.384,30.43-17.228,36.646-23.507,0,8.762-10.559,23.418-15.16,31.426,26.991-23.1,51.544-51.3,59.476-76.073l-21.879-22.194" transform="translate(-1111.341 -704.102)" fill="#ffa121"/>
          <path id="Path_9" data-name="Path 9" d="M1504.075,707.717c-12.332,16.349-30.792,32.106-52.605,53.332L1481,747.038c-3.7,6.79-9.083,16.295-12.082,20.384,6.813-3.642,17.807-11.582,21.473-15.752-.093,5.731-6.358,15.427-9.106,20.711,15.874-15.387,30.39-34.087,35.239-50.371l-12.447-14.292" transform="translate(-1138.758 -704.903)" fill="#fff" opacity="0.4"/>
        </g>
        <path id="Path_10" data-name="Path 10" d="M1211.143,837.328c.164,3.812,0,10.248-3.812,12.453-6.359,3.682-11.36-5.256-13.694-9.749-2.784-5.365-2.073-12.021,4.223-14.412C1206.178,822.46,1210.837,830.213,1211.143,837.328Z" transform="translate(-1069.516 -743.112)" fill="#dcfefb"/>
        <path id="Path_11" data-name="Path 11" d="M1706.263,1027.436c.164,3.812,0,10.248-3.812,12.453-6.359,3.682-11.36-5.256-13.694-9.749-2.784-5.364-2.073-12.021,4.224-14.412C1701.3,1012.568,1705.957,1020.321,1706.263,1027.436Z" transform="translate(-1263.165 -817.466)" fill="#dcfefb"/>
        <circle id="Ellipse_1" data-name="Ellipse 1" cx="5.328" cy="5.328" r="5.328" transform="translate(102.509 45.761)" fill="#dcfefb"/>
        <circle id="Ellipse_2" data-name="Ellipse 2" cx="8.112" cy="8.112" r="8.112" transform="translate(367.916 143.588) rotate(-26.428)" fill="#dcfefb"/>
      </g>
    </g>
    <g id="Group_22" data-name="Group 22" transform="translate(1293.384 393.916)">
      <g id="Group_19" data-name="Group 19" transform="translate(2.53 46.394)">
        <path id="Path_18" data-name="Path 18" d="M1595.171,470.111c-30.833,26.991-84.012,8.387-100.538,29.94l47.22,37.392Z" transform="translate(-1493.466 -470.111)" fill="#004a61"/>
        <path id="Path_19" data-name="Path 19" d="M1493.883,519.283h0a18.252,18.252,0,0,0,3.335,18.424l33.461,38.326,10.424-19.358Z" transform="translate(-1492.716 -489.343)" fill="#b6f5f1"/>
      </g>
      <g id="Group_20" data-name="Group 20" transform="translate(104.349 101.734)">
        <path id="Path_20" data-name="Path 20" d="M1740.278,561c-19.2,36.2,11.093,83.7-6.1,104.723l-47.22-37.392Z" transform="translate(-1670.507 -560.998)" fill="#004a61"/>
        <path id="Path_21" data-name="Path 21" d="M1723.611,708.972h0a18.249,18.249,0,0,1-18.7.977l-44.975-23.785,16.453-14.583Z" transform="translate(-1659.938 -604.248)" fill="#b6f5f1"/>
      </g>
      <path id="Path_22" data-name="Path 22" d="M1786.921,393.916l-42.04,15.434,36.654,29.025Z" transform="translate(-1588.811 -393.916)" fill="#1b1b43"/>
      <path id="Path_23" data-name="Path 23" d="M1696.441,448.289c-5.873,66.523-55.025,128.6-114.723,163.073l-54.4-43.034c22.827-71.82,65.34-123.214,132.471-149.064Z" transform="translate(-1503.718 -403.83)" fill="#8fcdc9"/>
      <path id="Path_24" data-name="Path 24" d="M1512.158,664.079l-23.6,16.339,67.5,53.449,10.5-26.753Z" transform="translate(-1488.561 -499.581)" fill="#004a61"/>
      <g id="Group_21" data-name="Group 21" transform="translate(112.233 44.968)">
        <circle id="Ellipse_5" data-name="Ellipse 5" cx="25.249" cy="25.249" r="25.249" transform="translate(0 5.962) rotate(-6.78)" fill="#fff"/>
        <path id="Path_25" data-name="Path 25" d="M1709.353,520.2l-.161-1.514a16.575,16.575,0,0,0,4.229-1.026l.55,1.419A18.032,18.032,0,0,1,1709.353,520.2Zm-4.752-.121a17.829,17.829,0,0,1-4.556-1.363l.627-1.387a16.354,16.354,0,0,0,4.167,1.248Zm13.536-3.293-.9-1.223a16.545,16.545,0,0,0,3.126-3.029l1.192.946A17.976,17.976,0,0,1,1718.137,516.79Zm-22.126-.583a17.962,17.962,0,0,1-3.244-3.476l1.24-.882a16.486,16.486,0,0,0,2.97,3.182Zm27.4-5.588-1.35-.7a16.422,16.422,0,0,0,1.481-4.091l1.486.324A17.932,17.932,0,0,1,1723.411,510.619Zm-32.86-2.095a18.1,18.1,0,0,1-1.035-4.64l1.516-.134a16.57,16.57,0,0,0,.949,4.249Zm33.347-7.037a16.693,16.693,0,0,0-.791-4.282l1.448-.47a18.112,18.112,0,0,1,.862,4.673Zm-32.674-2.084-1.5-.267a17.835,17.835,0,0,1,1.451-4.528l1.374.653A16.386,16.386,0,0,0,1691.225,499.4Zm30-6.121a16.462,16.462,0,0,0-2.849-3.292l1.011-1.139a17.983,17.983,0,0,1,3.109,3.6Zm-26.307-1.674-1.156-.989a18.01,18.01,0,0,1,3.535-3.178l.86,1.258A16.453,16.453,0,0,0,1694.92,491.608Zm19.854-4.054a16.377,16.377,0,0,0-4.117-1.4l.294-1.494a17.928,17.928,0,0,1,4.5,1.534Zm-12.729-.809-.5-1.439a18.131,18.131,0,0,1,4.656-.949l.107,1.519A16.582,16.582,0,0,0,1702.045,486.745Z" transform="translate(-1679.391 -474.258)" fill="#9192ff"/>
      </g>
      <rect id="Rectangle_9" data-name="Rectangle 9" width="9.726" height="84.462" rx="4.863" transform="translate(63.891 161.662) rotate(38.375)" fill="#1b1b43"/>
    </g>
  </g>
</svg>
