<svg id="notification-bing" xmlns="http://www.w3.org/2000/svg" width="29.714" height="29.714" viewBox="0 0 29.714 29.714">
  <path id="Vector" d="M0,0V4.123" transform="translate(14.857 7.973)" fill="none" stroke="#000" stroke-linecap="round" stroke-width="1.5"/>
  <path id="Vector-2" data-name="Vector" d="M11.041,0A8.243,8.243,0,0,0,2.795,8.246v2.6a6.429,6.429,0,0,1-.78,2.823L.442,16.293a2.64,2.64,0,0,0,1.486,4.024,28.9,28.9,0,0,0,18.237,0,2.748,2.748,0,0,0,1.486-4.024l-1.572-2.625a6.475,6.475,0,0,1-.78-2.823v-2.6A8.293,8.293,0,0,0,11.041,0Z" transform="translate(3.841 2.476)" fill="none" stroke="#000" stroke-linecap="round" stroke-width="1.5"/>
  <path id="Vector-3" data-name="Vector" d="M8.246,0A4.137,4.137,0,0,1,4.123,4.123,4.13,4.13,0,0,1,1.213,2.91,4.13,4.13,0,0,1,0,0" transform="translate(10.734 23.301)" fill="none" stroke="#000" stroke-width="1.5"/>
  <path id="Vector-4" data-name="Vector" d="M0,0H29.714V29.714H0Z" fill="none" opacity="0"/>
</svg>
