<svg xmlns="http://www.w3.org/2000/svg" xmlns:xlink="http://www.w3.org/1999/xlink" width="36" height="36" viewBox="0 0 36 36">
  <defs>
    <clipPath id="clip-path">
      <path id="Path_8" data-name="Path 8" d="M0-682.665H25.454v25.454H0Z" transform="translate(0 682.665)" fill="#019ef6"/>
    </clipPath>
  </defs>
  <g id="Group_2" data-name="Group 2" transform="translate(-1250 -59)">
    <circle id="Ellipse_1" data-name="Ellipse 1" cx="18" cy="18" r="18" transform="translate(1250 59)" fill="#a9dffd"/>
    <g id="svgexport-7_3_" data-name="svgexport-7 (3)" transform="translate(1255.091 69.546)">
      <g id="Group_1" data-name="Group 1" clip-path="url(#clip-path)">
        <path id="Path_1" data-name="Path 1" d="M-274.391-113.221c.3-.871,1.7-4.385,5.222-4.385,3.128,0,5.283,2.625,5.283,5.735,0,3.595-2.685,5.948-9.337,11.706a1.646,1.646,0,0,1-2.136.006c-5.7-4.848-9.66-7.66-9.66-11.712,0-3.11,2.156-5.735,5.283-5.735,3.518,0,4.927,3.514,5.222,4.385" transform="translate(287.179 124.478)" fill="none" stroke="#019ef6" stroke-width="2"/>
        <path id="Path_2" data-name="Path 2" d="M-115.525-59.046a2.237,2.237,0,0,1-2.237,2.237A2.237,2.237,0,0,1-120-59.046a2.28,2.28,0,0,1,2.237-2.287A2.28,2.28,0,0,1-115.525-59.046Z" transform="translate(123.778 62.079)" fill="none" stroke="#019ef6" stroke-width="2"/>
        <path id="Path_3" data-name="Path 3" d="M-115.525-57.763a2.237,2.237,0,0,1-2.237,2.237A2.237,2.237,0,0,1-120-57.763,2.237,2.237,0,0,1-117.763-60,2.237,2.237,0,0,1-115.525-57.763Z" transform="translate(130.49 71.236)" fill="none" stroke="#019ef6" stroke-width="2"/>
        <path id="Path_4" data-name="Path 4" d="M-115.525-59.046a2.237,2.237,0,0,1-2.237,2.237A2.237,2.237,0,0,1-120-59.046a2.28,2.28,0,0,1,2.237-2.287A2.28,2.28,0,0,1-115.525-59.046Z" transform="translate(137.201 62.079)" fill="none" stroke="#019ef6" stroke-width="2"/>
        <path id="Path_5" data-name="Path 5" d="M0,0C0,1.654,1.441,3.286,4.226,5.711a1.493,1.493,0,1,1-1.963,2.25l-.026-.022" transform="translate(5.144 12.578)" fill="none" stroke="#019ef6" stroke-width="2"/>
        <path id="Path_6" data-name="Path 6" d="M0-27.3a5.938,5.938,0,0,1,3.392-1.057,5.939,5.939,0,0,1,3.475,1.116" transform="translate(9.336 45.556)" fill="none" stroke="#019ef6" stroke-width="2"/>
        <path id="Path_7" data-name="Path 7" d="M-63.9-207.168l0,.009.025-.023a1.5,1.5,0,0,1-2.071-.041,1.5,1.5,0,0,1,.061-2.167c3.1-2.813,4.177-4.237,4.177-5.8" transform="translate(82.016 227.77)" fill="none" stroke="#019ef6" stroke-width="2"/>
      </g>
    </g>
  </g>
</svg>
