<svg xmlns="http://www.w3.org/2000/svg" version="1.1" xmlns:xlink="http://www.w3.org/1999/xlink" xmlns:svgjs="http://svgjs.com/svgjs" width="512" height="512" x="0" y="0" viewBox="0 0 64 64" style="enable-background:new 0 0 512 512" xml:space="preserve"><g><g data-name="03-google map"><circle cx="45" cy="19" r="6" fill="#A83229" data-original="#a83229"></circle><path fill="#4A9BF6" d="M41 63H7l17-17z" data-original="#4a9bf6"></path><path fill="#D3D9F2" d="M63 7v50a6 6 0 0 1-6 6h-4L30 40l7.61-7.61A102.883 102.883 0 0 0 45 41s14-14.27 14-22a13.921 13.921 0 0 0-1.57-6.43z" data-original="#d3d9f2"></path><path fill="#FFDF64" d="m63 7-5.57 5.57a13.908 13.908 0 0 0-6-6L57 1a6 6 0 0 1 6 6z" data-original="#ffdf64"></path><path fill="#F7F7FF" d="M53 63H41L24 46l6-6z" data-original="#f7f7ff"></path><path fill="#FFDF64" d="M37.61 32.39 30 40l-6 6L7 63a6 6 0 0 1-6-6l31.89-31.89a50.652 50.652 0 0 0 4.72 7.28z" data-original="#ffdf64"></path><path fill="#28BE77" d="m57 1-5.57 5.57A13.991 13.991 0 0 0 31 19a14.149 14.149 0 0 0 1.89 6.11L1 57V7a6 6 0 0 1 6-6z" data-original="#28be77"></path><path fill="#D73D3F" d="M57.43 12.57A13.921 13.921 0 0 1 59 19c0 7.73-14 22-14 22a102.883 102.883 0 0 1-7.39-8.61 50.652 50.652 0 0 1-4.72-7.28A14.149 14.149 0 0 1 31 19a14 14 0 0 1 26.43-6.43zM51 19a6 6 0 1 0-6 6 6 6 0 0 0 6-6z" data-original="#d73d3f"></path><path fill="#3B7CC4" d="m11 59-4 4h34l-4-4z" data-original="#3b7cc4"></path><path fill="#AEB2D4" d="M57 59h-8l4 4h4a6 6 0 0 0 6-6v-4a6 6 0 0 1-6 6z" data-original="#aeb2d4"></path><path fill="#B8BCE0" d="M62.117 7.883A5.945 5.945 0 0 1 63 11V7z" data-original="#b8bce0"></path><path fill="#FFB844" d="M57 5a5.992 5.992 0 0 1 5.117 2.883L63 7a6 6 0 0 0-6-6l-4 4z" data-original="#ffb844"></path><path fill="#CACFE8" d="m37 59 4 4h12l-4-4z" data-original="#cacfe8"></path><path fill="#FFB844" d="M7 59a5.992 5.992 0 0 1-5.117-2.883L1 57a6 6 0 0 0 6 6l4-4z" data-original="#ffb844"></path><path fill="#1FA463" d="M1 53v4l.883-.883A5.945 5.945 0 0 1 1 53zM7 5h46l4-4H7a6 6 0 0 0-6 6v4a6 6 0 0 1 6-6z" data-original="#1fa463"></path><path fill="#F7F7FF" d="M13 22a9 9 0 1 1 7.025-14.625l-3.125 2.5A5 5 0 1 0 17.583 15H13v-4h7a2 2 0 0 1 2 2 9.011 9.011 0 0 1-9 9z" data-original="#f7f7ff"></path><path fill="#91323C" d="M45 17a6 6 0 0 1 5.65 4 6 6 0 1 0-11.3 0A6 6 0 0 1 45 17z" data-original="#91323c"></path><path fill="#1FA463" d="M31.2 20.71A14.048 14.048 0 0 0 31 23a10.248 10.248 0 0 0 .668 3.332l1.222-1.222a17.958 17.958 0 0 1-1.69-4.4z" data-original="#1fa463"></path><path fill="#AEB2D4" d="M58.793 20.735C57.082 28.681 45 41 45 41a102.883 102.883 0 0 1-7.39-8.61l-1.68 1.68a72.01 72.01 0 0 0 1.68 2.32A102.883 102.883 0 0 0 45 45s14-14.27 14-22a13.843 13.843 0 0 0-.207-2.265z" data-original="#aeb2d4"></path><path fill="#FFB844" d="m32.89 25.11-1.222 1.222a21.63 21.63 0 0 0 1.222 2.778 43.491 43.491 0 0 0 3.04 4.96l1.68-1.68a50.652 50.652 0 0 1-4.72-7.28z" data-original="#ffb844"></path></g></g></svg>