<svg xmlns="http://www.w3.org/2000/svg" width="62" height="62" viewBox="0 0 62 62">
  <g id="map" transform="translate(-1 -1)">
    <g id="_03-google_map" data-name="03-google map">
      <circle id="Ellipse_8" data-name="Ellipse 8" cx="6" cy="6" r="6" transform="translate(39 13)" fill="#a83229"/>
      <path id="Path_851" data-name="Path 851" d="M41,63H7L24,46Z" fill="#343449"/>
      <path id="Path_852" data-name="Path 852" d="M63,7V57a6,6,0,0,1-6,6H53L30,40l7.61-7.61A102.883,102.883,0,0,0,45,41S59,26.73,59,19a13.921,13.921,0,0,0-1.57-6.43Z" fill="#343449"/>
      <path id="Path_853" data-name="Path 853" d="M63,7l-5.57,5.57a13.908,13.908,0,0,0-6-6L57,1a6,6,0,0,1,6,6Z" fill="#434365"/>
      <path id="Path_854" data-name="Path 854" d="M53,63H41L24,46l6-6Z" fill="#51516c"/>
      <path id="Path_855" data-name="Path 855" d="M37.61,32.39,30,40l-6,6L7,63a6,6,0,0,1-6-6L32.89,25.11a50.652,50.652,0,0,0,4.72,7.28Z" fill="#434365"/>
      <path id="Path_856" data-name="Path 856" d="M57,1,51.43,6.57A13.991,13.991,0,0,0,31,19a14.149,14.149,0,0,0,1.89,6.11L1,57V7A6,6,0,0,1,7,1Z" fill="#343449"/>
      <path id="Path_857" data-name="Path 857" d="M57.43,12.57A13.921,13.921,0,0,1,59,19c0,7.73-14,22-14,22a102.881,102.881,0,0,1-7.39-8.61,50.652,50.652,0,0,1-4.72-7.28A14.149,14.149,0,0,1,31,19a14,14,0,0,1,26.43-6.43ZM51,19a6,6,0,1,0-6,6A6,6,0,0,0,51,19Z" fill="#d73d3f"/>
      <path id="Path_858" data-name="Path 858" d="M11,59,7,63H41l-4-4Z" fill="#42425e"/>
      <path id="Path_859" data-name="Path 859" d="M57,59H49l4,4h4a6,6,0,0,0,6-6V53a6,6,0,0,1-6,6Z" fill="#51516c"/>
      <path id="Path_860" data-name="Path 860" d="M62.117,7.883A5.945,5.945,0,0,1,63,11V7Z" fill="#b8bce0"/>
      <path id="Path_861" data-name="Path 861" d="M57,5a5.992,5.992,0,0,1,5.117,2.883L63,7a6,6,0,0,0-6-6L53,5Z" fill="#393946"/>
      <path id="Path_862" data-name="Path 862" d="M37,59l4,4H53l-4-4Z" fill="#51516c"/>
      <path id="Path_863" data-name="Path 863" d="M7,59a5.992,5.992,0,0,1-5.117-2.883L1,57a6,6,0,0,0,6,6l4-4Z" fill="#393946"/>
      <path id="Path_864" data-name="Path 864" d="M1,53v4l.883-.883A5.945,5.945,0,0,1,1,53ZM7,5H53l4-4H7A6,6,0,0,0,1,7v4A6,6,0,0,1,7,5Z" fill="#383853"/>
      <path id="Path_865" data-name="Path 865" d="M13,22A9,9,0,1,1,20.025,7.375L16.9,9.875A5,5,0,1,0,17.583,15H13V11h7a2,2,0,0,1,2,2,9.011,9.011,0,0,1-9,9Z" fill="#f7f7ff"/>
      <path id="Path_866" data-name="Path 866" d="M45,17a6,6,0,0,1,5.65,4,6,6,0,1,0-11.3,0A6,6,0,0,1,45,17Z" fill="#91323c"/>
      <path id="Path_867" data-name="Path 867" d="M31.2,20.71A14.048,14.048,0,0,0,31,23a10.248,10.248,0,0,0,.668,3.332L32.89,25.11a17.958,17.958,0,0,1-1.69-4.4Z" fill="#1fa463"/>
      <path id="Path_868" data-name="Path 868" d="M58.793,20.735C57.082,28.681,45,41,45,41a102.881,102.881,0,0,1-7.39-8.61l-1.68,1.68q.817,1.177,1.68,2.32A102.883,102.883,0,0,0,45,45S59,30.73,59,23a13.842,13.842,0,0,0-.207-2.265Z" fill="#3b3b57"/>
      <path id="Path_869" data-name="Path 869" d="M32.89,25.11l-1.222,1.222A21.631,21.631,0,0,0,32.89,29.11a43.491,43.491,0,0,0,3.04,4.96l1.68-1.68a50.651,50.651,0,0,1-4.72-7.28Z" fill="#434365"/>
    </g>
  </g>
</svg>
