<svg xmlns="http://www.w3.org/2000/svg" width="46.125" height="63.677" viewBox="0 0 46.125 63.677">
  <g id="excel-dark" transform="translate(-71 -0.6)">
    <path id="Path_873" data-name="Path 873" d="M117.125,18.04V60.176a4.1,4.1,0,0,1-4.1,4.1H75.1a4.1,4.1,0,0,1-4.1-4.1V4.7A4.1,4.1,0,0,1,75.1.6H99.685Z" fill="#343449"/>
    <path id="Path_874" data-name="Path 874" d="M186.079,254.9h-20.17a1.309,1.309,0,0,0-1.309,1.309v17.565a1.309,1.309,0,0,0,1.309,1.309h20.183a1.309,1.309,0,0,0,1.309-1.309V256.221A1.338,1.338,0,0,0,186.079,254.9Zm-18.861,8.427h7.467v3.328h-7.467Zm10.085,0h7.467v3.328H177.3Zm7.467-2.618H177.3V257.53h7.467Zm-10.085-3.179v3.179h-7.467V257.53Zm-7.467,11.756h7.467v3.179h-7.467Zm10.085,3.179v-3.179h7.467v3.179Z" transform="translate(-81.932 -222.598)" fill="#fff"/>
    <path id="Path_875" data-name="Path 875" d="M319.9,105.726,335,117.955V106.474l-8.564-4.974Z" transform="translate(-217.872 -88.322)" opacity="0.19"/>
    <path id="Path_876" data-name="Path 876" d="M318.54,18.04H305.2a4.1,4.1,0,0,1-4.1-4.1V.6Z" transform="translate(-201.415)" fill="#717180"/>
  </g>
</svg>
