<svg xmlns="http://www.w3.org/2000/svg" width="482.631" height="542.564" viewBox="0 0 482.631 542.564">
  <g id="_x32_" transform="translate(-76.4 -57.9)">
    <g id="Group_1195" data-name="Group 1195" transform="translate(128.353 80.235)">
      <g id="Group_1190" data-name="Group 1190" transform="translate(0 122.899)">
        <g id="Group_1174" data-name="Group 1174" transform="translate(185.316 241.259)">
          <path id="Path_1438" data-name="Path 1438" d="M321.4,425.693c6.474-1.619,48.554-12.139,48.231-26.219,0-2.751-1.78-7.445-12.948-12.948-7.445-6.636-14.89-13.433-22.335-20.069l-5.988-5.341-1.457-1.295-5.827-5.179-1.619-1.457-5.988-5.341-1.618-1.457-5.665-5.179-1.618-1.457-5.665-5.017-1.78-1.619-5.988-5.341A1.419,1.419,0,0,1,290,326.8l-6.636-5.988-.809-.647L267.994,306.9c-4.046-3.4-7.931-6.8-11.977-10.2-11.006,13.6-22.011,27.029-33.017,40.624l1.457,1.295,6.474,5.665Z" transform="translate(-223 -296.7)" fill="#ff9292"/>
          <path id="Path_1439" data-name="Path 1439" d="M292.433,429.489a7.209,7.209,0,0,0,5.665,1.618c26.381-23.792,52.762-47.421,79.144-71.213,4.532-4.046,9.064-8.254,13.6-12.3a45.932,45.932,0,0,0-3.723-6.474,26.613,26.613,0,0,0-6.474-5.988c-13.757-8.254-36.9-1.618-57.78,17.48-1.942,1.78-3.723,3.561-5.665,5.5l-1.295,1.295-6.474,6.474-2.1,2.1L282.4,392.912l-3.4,3.4a11.489,11.489,0,0,1,1.618,2.266,88.734,88.734,0,0,1,6.636,10.52,32.425,32.425,0,0,1,2.59,6.636,7.342,7.342,0,0,1,.324,1.295c.162.486.162.971.324,1.457a9.784,9.784,0,0,1,0,3.075c0,1.133-.324,4.37,1.133,6.474A2.179,2.179,0,0,0,292.433,429.489Z" transform="translate(-188.365 -275.086)" fill="#ff9292"/>
          <path id="Path_1440" data-name="Path 1440" d="M289.279,429.427a7.209,7.209,0,0,0,5.665,1.618c26.381-23.792,52.762-47.421,79.144-71.213,4.532-4.046,9.064-8.254,13.6-12.3a28.243,28.243,0,0,0-3.722-6.312,26.613,26.613,0,0,0-6.474-5.988c-13.757-8.254-36.9-1.618-57.78,17.48-1.942,1.78-3.723,3.561-5.665,5.5l-1.295,1.295c6.959,3.723,14.566,8.74,13.919,13.11-.647,3.561-7.445,2.266-14.243,7.607-8.578,6.959-5.827,15.537-14.243,22.821a26.067,26.067,0,0,1-14.081,5.988,65.938,65.938,0,0,1,2.59,6.636,7.342,7.342,0,0,1,.324,1.295c.162.485.162.971.324,1.457a9.783,9.783,0,0,1,0,3.075c0,1.133-.324,4.37,1.133,6.474A2.179,2.179,0,0,0,289.279,429.427Z" transform="translate(-185.211 -275.024)" fill="#00ac9f"/>
        </g>
        <path id="Path_1441" data-name="Path 1441" d="M286.766,246.171a135.582,135.582,0,0,1-48.393,18.289,132.108,132.108,0,0,1-42.566-.162c-5.665-.162-10.844-4.532-12.624-10.682-2.266-7.283.809-15.7,7.283-18.451,30.1-5.988,60.369-11.977,90.473-17.965,5.341,6.312,10.682,12.624,16.023,18.774Z" transform="translate(-62.768 -104.61)" fill="#ff9292"/>
        <path id="Path_1442" data-name="Path 1442" d="M160.752,219.638c4.855,10.844,13.11,17.156,23.144,24.277l4.855,3.4c1.618,1.133,3.075,2.266,4.694,3.237,4.37,3.075,9.064,5.988,13.919,9.387,7.121,4.694,14.89,9.387,22.982,14.4,4.532-9.549,9.064-19.422,13.757-28.971-7.283-5.988-15.052-12.139-23.63-18.289-1.457-1.133-3.075-2.266-4.694-3.4-2.1-1.457-4.37-3.075-6.636-4.37A367.384,367.384,0,0,0,159.3,191.8c-.324.647-.647,1.457-1.133,2.428C154.278,204.748,159.133,216.077,160.752,219.638Z" transform="translate(-78.695 -120.319)" fill="#ff9292"/>
        <path id="Path_1443" data-name="Path 1443" d="M176.6,233.831c1.618,1.133,3.075,2.266,4.694,3.237,4.37,3.075,9.064,5.988,13.919,9.387,4.532-10.844,8.9-21.849,13.11-32.855C197.964,220.236,187.282,227.033,176.6,233.831Z" transform="translate(-66.382 -106.837)" fill="#fc6565"/>
        <path id="Path_1444" data-name="Path 1444" d="M198.345,260.229c7.121-11.653,14.4-23.468,21.526-35.121-11.977-10.682-24.115-21.526-36.092-32.208A28.606,28.606,0,0,0,160.8,212c-4.532,13.919,4.208,25.248,4.855,26.219C176.5,245.5,187.339,252.784,198.345,260.229Z" transform="translate(-76.959 -119.639)" fill="#ffca22"/>
        <path id="Path_1445" data-name="Path 1445" d="M126.833,314.431c1.618.971,7.445,3.884,17.965.486l2.266.162,6.312.324,22.5,1.457,4.532.324,13.433.809,37.549,2.428h1.457l11.168.809c.324,0,20.555,1.295,20.555,1.295l3.884.162,3.237-49.364-3.4-.162-4.208-.324-3.4-.162-4.208-.162-1.78-.162-10.844-.647h-2.266l-3.075-.162-2.751-.162-3.4-.162-12.139-.809-3.237-.162-3.075-.162-3.4-.162-3.722-.162-15.376-.971-2.751-.162-5.179-.324-11.168-.647-1.942-.162-3.561-.162-11.977-.809-5.665-.324H148.2a19.217,19.217,0,0,1-10.2,5.179,17.8,17.8,0,0,1-14.728-5.179C112.428,287.888,116.313,308.442,126.833,314.431Z" transform="translate(-103.365 -74.305)" fill="#ff9292"/>
        <path id="Path_1446" data-name="Path 1446" d="M183.059,329.468a61.824,61.824,0,0,1-14.4,2.59c-22.821,1.619-40.624-8.9-48.554-14.4a446.967,446.967,0,0,1,46.45-105.687c5.827-9.549,11.653-18.451,17.641-26.867,8.578,3.4,16.994,6.8,25.572,10.035C200.7,239.966,191.96,284.637,183.059,329.468Z" transform="translate(-101.326 -124.463)" fill="#ff9292"/>
        <path id="Path_1447" data-name="Path 1447" d="M159.4,196.409c4.208,1.618,8.416,3.237,12.462,4.855l4.855,1.942c2.751.971,5.341,2.1,8.092,3.075a.6.6,0,0,1,.486.162v-.486c.486-2.1.971-4.046,1.618-5.988.486-2.1.971-4.208,1.618-6.15.162-.971.486-1.942.647-2.913.647-2.428,1.295-4.694,1.942-6.959a25.005,25.005,0,0,1,.971-3.723c.486-2.1,1.133-4.208,1.618-6.474-.809-.324-1.457-.647-2.266-.971-4.046-1.78-8.254-3.4-12.3-5.179-2.1,2.913-4.208,5.827-6.15,8.74-1.457,2.1-2.913,4.208-4.37,6.474a.867.867,0,0,1-.486.647c-1.618,2.428-3.075,4.694-4.694,7.121C161.99,192.525,160.857,194.467,159.4,196.409Z" transform="translate(-77.019 -135.287)" fill="#ff9292"/>
        <path id="Path_1448" data-name="Path 1448" d="M285.766,250.271a135.583,135.583,0,0,1-48.393,18.289,132.11,132.11,0,0,1-42.566-.162c-5.665-.162-10.844-4.532-12.624-10.682-2.266-7.283.809-15.7,7.283-18.451,30.1-5.988,60.369-11.977,90.473-17.965Z" transform="translate(-63.387 -102.074)" fill="#ff9292"/>
        <path id="Path_1449" data-name="Path 1449" d="M198.6,297.457a31,31,0,0,0,.809,6.636,21.185,21.185,0,0,0,2.428,5.988,3.386,3.386,0,0,0,.647.971c7.283,11.977,23.468,15.861,36.578,8.416A28.041,28.041,0,0,0,253.79,294.22l-.324-3.4v-.486a26.878,26.878,0,0,0-2.751-7.607c-.647-.971-1.295-2.1-1.942-3.075a25.7,25.7,0,0,0-6.959-6.312l-1.942-.971a28.286,28.286,0,0,0-26.381.971,29.252,29.252,0,0,0-14.89,24.115Z" transform="translate(-52.775 -72.221)" fill="#ff9292"/>
        <path id="Path_1450" data-name="Path 1450" d="M209.9,311.557a30.994,30.994,0,0,0,.809,6.636,21.186,21.186,0,0,0,2.428,5.988,3.385,3.385,0,0,0,.647.971c7.283,11.977,23.468,15.861,36.578,8.416A28.041,28.041,0,0,0,265.09,308.32l-.324-3.4v-.486a26.879,26.879,0,0,0-2.751-7.607c-.647-.971-1.295-2.1-1.942-3.075a25.705,25.705,0,0,0-6.959-6.312l-1.942-.971a28.286,28.286,0,0,0-26.381.971,25.951,25.951,0,0,0-7.607,6.15A26.492,26.492,0,0,0,209.9,311.557Z" transform="translate(-45.786 -63.501)" fill="#ff9292"/>
        <g id="Group_1175" data-name="Group 1175" transform="translate(149.319 227.34)">
          <path id="Path_1451" data-name="Path 1451" d="M213.586,427.451c5.827,3.237,44.023,23.63,53.248,13.11,1.78-2.1,3.723-6.636-.809-18.289-.971-10.035-1.942-19.907-2.913-29.942L262.3,384.4l-.162-1.942-.809-7.769-.162-2.266-.809-7.93-.162-2.266-.809-7.607-.162-2.266-.647-7.445-.162-2.266-.809-7.931a1.573,1.573,0,0,1-.162-1.457l-.809-8.9-.162-.971L254.533,303.8c-.647-5.179-1.295-10.358-1.942-15.7-17.318,2.59-34.474,5.179-51.791,7.607l.162,1.942.809,8.578Z" transform="translate(-200.733 -288.1)" fill="#ff9292"/>
          <path id="Path_1452" data-name="Path 1452" d="M200.826,401.892a7.308,7.308,0,0,0,3.075,5.017c35.445.162,71.051.647,106.5.809,6.15,0,12.3,0,18.289.162A55.4,55.4,0,0,0,330.3,400.6a22.834,22.834,0,0,0-.809-8.74C324.8,376.482,303.275,365.8,274.952,365.8c-2.59,0-5.179.162-7.931.324h-1.78c-2.913.162-6.15.324-9.064.486a17.583,17.583,0,0,0-2.913.162c-11.653.647-23.468,1.133-35.121,1.618-1.618,0-3.237.162-4.855.162a14.252,14.252,0,0,1-.324,2.751,62.731,62.731,0,0,1-2.266,12.139,33.4,33.4,0,0,1-2.59,6.636,9.283,9.283,0,0,1-.647,1.133c-.324.486-.486.809-.809,1.295a7.159,7.159,0,0,1-2.1,2.266c-.809.809-3.075,3.075-3.561,5.5A2.8,2.8,0,0,0,200.826,401.892Z" transform="translate(-200.759 -240.044)" fill="#ff9292"/>
          <path id="Path_1453" data-name="Path 1453" d="M200.826,401.954a7.308,7.308,0,0,0,3.075,5.017c35.445.162,71.051.647,106.5.809h18.289A55.4,55.4,0,0,0,330.3,400.5a22.834,22.834,0,0,0-.809-8.74C324.8,376.382,303.275,365.7,274.952,365.7c-2.59,0-5.179.162-7.931.324h-1.78c2.59,7.445,4.855,16.347,1.457,18.936-2.913,2.266-6.959-3.4-15.7-3.884-11.006-.647-14.89,7.607-25.9,7.283a27.049,27.049,0,0,1-14.4-5.017,47.374,47.374,0,0,1-2.59,6.636,9.287,9.287,0,0,1-.647,1.133c-.324.486-.486.809-.809,1.295a7.158,7.158,0,0,1-2.1,2.266c-.809.809-3.075,3.075-3.561,5.5A3.5,3.5,0,0,0,200.826,401.954Z" transform="translate(-200.759 -240.106)" fill="#00ac9f"/>
        </g>
        <path id="Path_1454" data-name="Path 1454" d="M172,170.3c2.913,7.283,5.665,14.566,8.578,21.849.162-.971.486-1.942.647-2.913.647-2.428,1.295-4.694,1.942-6.959a25,25,0,0,1,.971-3.723c.486-2.1,1.133-4.208,1.618-6.474-.809-.324-1.457-.647-2.266-.971C179.769,170.786,175.884,170.624,172,170.3Z" transform="translate(-69.227 -133.617)" fill="#fc6565"/>
        <g id="Group_1176" data-name="Group 1176" transform="translate(101.29 2.362)">
          <path id="Path_1455" data-name="Path 1455" d="M171.272,170.63c-1.457,13.11,5.665,24.6,15.7,25.734,8.416.971,16.508-5.827,19.584-15.7a23.421,23.421,0,0,0,1.295-5.827c0-.162.162-2.266.162-2.266a26.633,26.633,0,0,0-3.4-14.566,16.661,16.661,0,0,0-12.462-8.9h-1.133c-8.74-.324-16.67,7.445-19.1,18.289A6.418,6.418,0,0,0,171.272,170.63Z" transform="translate(-171.083 -149.094)" fill="#ff9292"/>
          <path id="Path_1456" data-name="Path 1456" d="M189.3,177.429c.809-.647,1.78-1.133,2.59-1.78,2.266-1.942,4.37-3.723,6.636-5.665a1.787,1.787,0,0,0,0-1.295c-.486-.809-1.618-.809-2.1-.809a23.124,23.124,0,0,1-6.474-1.78C189.624,169.984,189.462,173.707,189.3,177.429Z" transform="translate(-159.816 -138.576)" fill="#ff9292"/>
        </g>
        <path id="Path_1457" data-name="Path 1457" d="M177.8,167.035a4.7,4.7,0,1,0,4.855-4.532A4.6,4.6,0,0,0,177.8,167.035Z" transform="translate(-65.643 -138.444)" fill="#fc6565"/>
        <g id="Group_1177" data-name="Group 1177" transform="translate(124.454 22.207)">
          <path id="Path_1458" data-name="Path 1458" d="M185.4,164.5c-.162,1.78,2.59,3.4,4.37,3.884a13.234,13.234,0,0,0,3.4.486c.324,0,.486,0,.647-.162a3.168,3.168,0,0,0,1.942-.971c.647-1.295-.324-3.723-2.428-5.179l-.324-.324a19,19,0,0,0-1.78-.809h-.647c-.324-.162-.647,0-.809,0C187.507,161.751,185.4,163.046,185.4,164.5Z" transform="translate(-185.396 -161.356)" fill="#f4f4f7"/>
          <path id="Path_1459" data-name="Path 1459" d="M188.217,163.5a9.857,9.857,0,0,0,0,4.855,13.234,13.234,0,0,0,3.4.486c.324,0,.486,0,.647-.162a3.168,3.168,0,0,0,1.942-.971c.647-1.295-.324-3.722-2.428-5.179l-.324-.324a19,19,0,0,0-1.78-.809h-.647A11.237,11.237,0,0,0,188.217,163.5Z" transform="translate(-183.84 -161.328)" fill="#232996"/>
        </g>
        <path id="Path_1460" data-name="Path 1460" d="M184.248,172.015c-.647.324-.647,3.561,1.295,4.694,1.618.971,4.046,0,4.208-.809,0-.324-.486-.647-3.4-2.751C184.734,172.177,184.572,171.853,184.248,172.015Z" transform="translate(-61.891 -132.581)" fill="#f4f4f7"/>
        <g id="Group_1180" data-name="Group 1180" transform="translate(128.952 173.413)">
          <g id="Group_1178" data-name="Group 1178" transform="translate(198.758)">
            <path id="Path_1461" data-name="Path 1461" d="M351.474,477.677a.906.906,0,0,1-.971-.809L311.012,256.107a1.114,1.114,0,0,1,.809-1.295,1.213,1.213,0,0,1,1.295.809l39.491,220.6a1.114,1.114,0,0,1-.809,1.295A.5.5,0,0,1,351.474,477.677Z" transform="translate(-310.98 -254.78)" fill="#11877e"/>
          </g>
          <g id="Group_1179" data-name="Group 1179" transform="translate(0 0.152)">
            <path id="Path_1462" data-name="Path 1462" d="M189.187,477.619c-.809-.162-1.133-.647-.971-1.295l39.491-220.6a1.08,1.08,0,0,1,2.1.486l-39.491,220.6A1.514,1.514,0,0,1,189.187,477.619Z" transform="translate(-188.175 -254.875)" fill="#11877e"/>
          </g>
        </g>
        <path id="Path_1463" data-name="Path 1463" d="M193.631,265.361H431.223a7.931,7.931,0,1,0,0-15.861H193.631a7.931,7.931,0,1,0,0,15.861Z" transform="translate(-60.753 -84.633)" fill="#84dbef"/>
        <g id="Group_1181" data-name="Group 1181" transform="translate(167.027 47.563)">
          <path id="Path_1464" data-name="Path 1464" d="M285.528,293.193l.971.324a3,3,0,0,0,3.723-2.1l30.427-110.218a3,3,0,0,0-2.1-3.723l-.971-.324a3,3,0,0,0-3.723,2.1L283.424,289.47A3.193,3.193,0,0,0,285.528,293.193Z" transform="translate(-167.379 -177.023)" fill="#11877e"/>
          <path id="Path_1465" data-name="Path 1465" d="M215.1,252.1H327.907a3.4,3.4,0,1,0,0-6.8H215.1a3.419,3.419,0,0,0-3.4,3.4A3.531,3.531,0,0,0,215.1,252.1Z" transform="translate(-211.7 -134.794)" fill="#11877e"/>
        </g>
        <path id="Path_1466" data-name="Path 1466" d="M248.127,250.271c1.942.809,4.046,1.942,6.15,3.075a112.676,112.676,0,0,1,11.168,6.8c2.1.324,4.208.486,6.474.809,1.618.971,3.884-9.225-2.428-25.086a31.335,31.335,0,0,0-3.237-3.4c-7.931-7.445-17.48-10.035-23.953-11.167C244.242,231.011,246.184,240.722,248.127,250.271Z" transform="translate(-25.747 -102.074)" fill="#ff9292"/>
        <path id="Path_1467" data-name="Path 1467" d="M246.694,226.459h9.549c1.295.324,5.665,1.457,9.873-.647.647-.324,4.046-2.1,3.884-3.561-.162-1.295-3.075-2.59-14.566-2.751-4.532.971-8.9,2.1-13.433,3.075C243.618,223.87,245.237,225.165,246.694,226.459Z" transform="translate(-25.933 -103.188)" fill="#ff9292"/>
        <path id="Path_1468" data-name="Path 1468" d="M187.6,318.378h1.457l11.168.809c0-16.509,0-33.017-.162-49.687-2.751,5.665-5.5,11.329-8.092,16.994C190.513,297.176,189.057,307.7,187.6,318.378Z" transform="translate(-59.578 -72.264)" fill="#fc6565"/>
        <path id="Path_1469" data-name="Path 1469" d="M125,318.522c37.225,1.618,74.288,3.237,111.513,4.855,3.237-17.8,6.636-35.607,9.873-53.41-32.693-1.133-65.387-2.428-98.242-3.561-1.78-.486-17.156-4.855-26.867,3.4C110.436,279.031,109.465,301.366,125,318.522Z" transform="translate(-105.58 -75.159)" fill="#ff2468"/>
        <path id="Path_1470" data-name="Path 1470" d="M112.4,316.359a142.123,142.123,0,0,0,55.352,7.445,139.735,139.735,0,0,0,30.751-5.017c3.4-25.9,6.8-51.791,10.035-77.849,2.1-15.214,4.046-30.589,5.988-45.8-8.578-3.237-16.994-6.636-25.572-10.035-4.532,3.884-8.74,8.092-13.272,12.624C138.943,235.758,121.3,280.267,112.4,316.359Z" transform="translate(-106.088 -124.463)" fill="#ffca22"/>
        <path id="Path_1471" data-name="Path 1471" d="M176.326,170.723c1.618.647,3.723,1.295,5.665.486a8.2,8.2,0,0,0,3.237-2.913c1.457-1.78,4.208-3.884,9.873-4.694a22.205,22.205,0,0,0,7.283,3.237,22.71,22.71,0,0,0,8.578.324c5.017-5.341,5.341-7.769,4.694-8.9-.486-.971-1.618-.971-3.237-2.266a8.422,8.422,0,0,1-2.59-4.37,5.548,5.548,0,0,1-2.751.809c-3.723.486-6.312-1.942-8.74-3.237-5.5-2.913-12.948-1.295-17.318,1.133-7.769,4.37-9.225,13.272-9.549,14.89-.971,9.549-.971,14.4.162,14.566S174.222,176.873,176.326,170.723Z" transform="translate(-69.992 -147.635)" fill="#232996"/>
        <path id="Path_1472" data-name="Path 1472" d="M181.267,163.941a4.976,4.976,0,0,1-4.855,4.855c-2.59-.162-4.37-2.59-4.208-5.341a4.57,4.57,0,1,1,9.063.486Z" transform="translate(-69.107 -140.853)" fill="#ff9292"/>
        <g id="Group_1182" data-name="Group 1182" transform="translate(134.651 115.82)">
          <path id="Path_1473" data-name="Path 1473" d="M203.679,237.977a.89.89,0,0,1-.809-.486l-11.006-16.67a1.055,1.055,0,1,1,1.78-1.133l11.006,16.67a1.054,1.054,0,0,1-.324,1.457A1.223,1.223,0,0,1,203.679,237.977Z" transform="translate(-191.696 -219.196)" fill="#f74f4f"/>
        </g>
        <g id="Group_1183" data-name="Group 1183" transform="translate(145.47 117.575)">
          <path id="Path_1474" data-name="Path 1474" d="M199.383,236.5a.906.906,0,0,1-.971-.809,1.114,1.114,0,0,1,.809-1.295l74.288-14.081a1.08,1.08,0,1,1,.486,2.1L199.707,236.5Z" transform="translate(-198.38 -220.28)" fill="#f74f4f"/>
        </g>
        <g id="Group_1184" data-name="Group 1184" transform="translate(80.44 73.423)">
          <path id="Path_1475" data-name="Path 1475" d="M159.8,206.857c.324,11.653,5.665,20.717,11.977,30.913.971,1.618,2.1,3.237,3.237,5.017.971,1.618,2.1,3.237,3.075,4.855,1.942,2.913,3.884,5.827,5.988,9.063a53.154,53.154,0,0,1,3.237,5.017c4.855,7.121,10.035,14.4,15.7,22.173,7.931-7.121,15.861-14.243,23.953-21.364-4.37-8.416-9.225-16.994-14.728-25.9-.971-1.78-1.942-3.237-2.913-5.017-1.457-2.266-2.913-4.532-4.37-6.636A398.591,398.591,0,0,0,180.84,193.1a25.906,25.906,0,0,0-16.67,7.769A18.493,18.493,0,0,0,159.8,206.857Z" transform="translate(-157.212 -192.938)" fill="#ff9292"/>
          <path id="Path_1476" data-name="Path 1476" d="M169.3,226.212c.971,1.618,2.1,3.237,3.075,4.855,2.913,4.532,5.988,9.064,9.225,14.081,8.416-8.254,16.67-16.832,24.925-25.248C194.225,221.842,181.6,224.108,169.3,226.212Z" transform="translate(-151.336 -176.363)" fill="#fc6565"/>
          <path id="Path_1477" data-name="Path 1477" d="M159.494,226.664c7.121,11.006,14.4,22.011,21.688,33.017,1.295-.971,2.751-1.942,4.046-2.913,9.225-6.636,18.613-13.433,28-20.069.647-.486.971-.647,1.457-.971L184.581,193a24.1,24.1,0,0,0-2.751.162,25.906,25.906,0,0,0-16.67,7.769,26.656,26.656,0,0,0-4.37,6.15A26.2,26.2,0,0,0,159.494,226.664Z" transform="translate(-158.201 -193)" fill="#ffca22"/>
        </g>
        <path id="Path_1478" data-name="Path 1478" d="M172.3,389.513a9.711,9.711,0,1,0,9.711-9.711A9.537,9.537,0,0,0,172.3,389.513Z" transform="translate(-69.041 -4.047)" fill="#11877e"/>
        <g id="Group_1188" data-name="Group 1188" transform="translate(0 240.935)">
          <path id="Path_1479" data-name="Path 1479" d="M119.02,317.54H222.279a10.52,10.52,0,1,0,0-21.04H119.02a10.6,10.6,0,0,0-10.52,10.52A10.711,10.711,0,0,0,119.02,317.54Z" transform="translate(-108.5 -296.5)" fill="#00ac9f"/>
          <rect id="Rectangle_325" data-name="Rectangle 325" width="8.416" height="123.49" transform="translate(66.463 140.079) rotate(180)" fill="#00ac9f"/>
          <g id="Group_1185" data-name="Group 1185" transform="translate(62.089 105.037)">
            <path id="Path_1480" data-name="Path 1480" d="M197.1,407.69c-.809-.162-1.133-.647-.971-1.295,3.075-15.7-3.4-31.075-16.185-38.52-13.919-8.092-28.647-2.428-31.56-1.295a1.086,1.086,0,1,1-.971-1.942c2.913-1.295,18.613-7.283,33.341,1.295,13.6,7.931,20.555,24.277,17.156,40.786C197.905,407.366,197.582,407.69,197.1,407.69Z" transform="translate(-146.863 -361.398)" fill="#00ac9f"/>
          </g>
          <path id="Path_1481" data-name="Path 1481" d="M141.5,389.513a9.711,9.711,0,1,0,9.711-9.711A9.537,9.537,0,0,0,141.5,389.513Z" transform="translate(-88.09 -244.982)" fill="#00ac9f"/>
          <g id="Group_1187" data-name="Group 1187" transform="translate(2.59 105.199)">
            <g id="Group_1186" data-name="Group 1186" transform="translate(8.601)">
              <path id="Path_1482" data-name="Path 1482" d="M117.172,407.628a.906.906,0,0,1-.971-.809c-3.237-16.508,3.722-32.855,17.156-40.786,14.89-8.578,30.427-2.59,33.341-1.295a1.086,1.086,0,1,1-.971,1.942c-2.751-1.133-17.48-6.8-31.56,1.295-12.786,7.445-19.26,22.821-16.185,38.52a1.114,1.114,0,0,1-.809,1.295C117.333,407.628,117.333,407.628,117.172,407.628Z" transform="translate(-115.414 -361.498)" fill="#00ac9f"/>
            </g>
            <path id="Path_1483" data-name="Path 1483" d="M129.522,389.513a9.711,9.711,0,1,1-9.711-9.711A9.537,9.537,0,0,1,129.522,389.513Z" transform="translate(-110.1 -350.181)" fill="#00ac9f"/>
          </g>
        </g>
        <g id="Group_1189" data-name="Group 1189" transform="translate(199.72 220.866)">
          <path id="Path_1484" data-name="Path 1484" d="M240.964,367.128a1.388,1.388,0,0,1-1.133-.971L231.9,285.233c0-.647.324-1.133.971-1.133s1.133.324,1.133.971L241.935,366c.162.647-.162,1.133-.971,1.133Z" transform="translate(-231.9 -284.1)" fill="#f74f4f"/>
        </g>
      </g>
      <path id="Path_1485" data-name="Path 1485" d="M217.637,142.409a4.381,4.381,0,0,0,4.37,4.532,4.449,4.449,0,0,1,2.59,8.092,4.473,4.473,0,0,0-1.942,3.561,4.357,4.357,0,0,0,5.827,4.208,4.572,4.572,0,0,1,5.017,6.959,4.076,4.076,0,0,0-.809,2.59,4.463,4.463,0,0,0,7.121,3.561,4.076,4.076,0,0,1,2.59-.809,4.406,4.406,0,0,1,4.208,5.827,4.726,4.726,0,0,0-.324,1.457,4.459,4.459,0,0,0,8.092,2.428,4.288,4.288,0,0,1,3.561-1.78,4.487,4.487,0,0,1,4.532,4.37,4.483,4.483,0,0,0,8.74,1.457,4.417,4.417,0,0,1,8.416,0,4.262,4.262,0,0,0,4.208,3.075,4.418,4.418,0,0,0,4.532-4.532,4.474,4.474,0,0,1,8.092-2.59,4.473,4.473,0,0,0,3.561,1.942,4.357,4.357,0,0,0,4.208-5.827,4.726,4.726,0,0,1-.324-1.457,4.487,4.487,0,0,1,7.121-3.561,4.3,4.3,0,0,0,2.59.971,4.463,4.463,0,0,0,3.561-7.121,4.076,4.076,0,0,1-.809-2.59,4.475,4.475,0,0,1,5.827-4.208,4.725,4.725,0,0,0,1.457.324,4.459,4.459,0,0,0,2.428-8.092,4.473,4.473,0,0,1-1.942-3.561,4.52,4.52,0,0,1,4.532-4.532,4.484,4.484,0,0,0,1.295-8.74,4.417,4.417,0,0,1,0-8.416,4.262,4.262,0,0,0,3.075-4.208,4.381,4.381,0,0,0-4.37-4.532,4.52,4.52,0,0,1-4.532-4.532,4.473,4.473,0,0,1,1.942-3.561,4.462,4.462,0,0,0-3.884-7.931,4.725,4.725,0,0,1-1.457.324,4.487,4.487,0,0,1-3.561-7.121,4.076,4.076,0,0,0,.809-2.59,4.463,4.463,0,0,0-7.121-3.561,4.076,4.076,0,0,1-2.59.809,4.475,4.475,0,0,1-4.208-5.827,4.726,4.726,0,0,0,.324-1.457,4.459,4.459,0,0,0-8.092-2.428,4.288,4.288,0,0,1-3.561,1.78,4.52,4.52,0,0,1-4.532-4.532,4.484,4.484,0,0,0-8.74-1.295,4.417,4.417,0,0,1-8.416,0c-1.618-4.855-8.74-3.723-8.74,1.295a4.449,4.449,0,0,1-8.092,2.59,4.473,4.473,0,0,0-3.561-1.942,4.357,4.357,0,0,0-4.208,5.827,4.572,4.572,0,0,1-6.959,5.017,4.3,4.3,0,0,0-2.59-.971,4.463,4.463,0,0,0-3.561,7.121,4.076,4.076,0,0,1,.809,2.59,4.475,4.475,0,0,1-5.827,4.208,4.726,4.726,0,0,0-1.457-.324,4.5,4.5,0,0,0-2.59,8.092,4.473,4.473,0,0,1,1.942,3.561,4.52,4.52,0,0,1-4.532,4.532c-5.017,0-6.15,7.121-1.295,8.578a4.417,4.417,0,0,1,0,8.416A5.185,5.185,0,0,0,217.637,142.409Zm41.271-8.416A16.508,16.508,0,1,1,275.417,150.5,16.474,16.474,0,0,1,258.908,133.993Z" transform="translate(-41.223 -68.93)" fill="#84dbef"/>
      <g id="Group_1191" data-name="Group 1191" transform="translate(178.68)">
        <path id="Path_1486" data-name="Path 1486" d="M286.229,188.878a5.205,5.205,0,0,1-5.179-3.884,3.168,3.168,0,0,0-3.237-2.266,3.517,3.517,0,0,0-3.237,2.266,5.457,5.457,0,0,1-10.682-1.618,2.724,2.724,0,0,0-.971-2.266,3.569,3.569,0,0,0-2.428-.971,2.986,2.986,0,0,0-2.751,1.457,5.613,5.613,0,0,1-6.15,2.1,5.54,5.54,0,0,1-3.884-5.179,5.819,5.819,0,0,1,.324-1.78,3.138,3.138,0,0,0-.486-2.913,3.56,3.56,0,0,0-4.855-.809,5.17,5.17,0,0,1-5.665.486,5.556,5.556,0,0,1-3.075-5.017,4.947,4.947,0,0,1,1.133-3.237,3.183,3.183,0,0,0,.324-3.561,3.575,3.575,0,0,0-4.046-1.78,5.164,5.164,0,0,1-4.855-.647,5.6,5.6,0,0,1-2.428-4.532,5.373,5.373,0,0,1,2.266-4.37,3.364,3.364,0,0,0,1.295-3.722,3.257,3.257,0,0,0-3.237-2.266,5.443,5.443,0,0,1-5.5-5.5,5.205,5.205,0,0,1,3.884-5.179,3.168,3.168,0,0,0,2.266-3.237,3.517,3.517,0,0,0-2.266-3.237,5.292,5.292,0,0,1-3.722-5.988,5.4,5.4,0,0,1,5.341-4.694,3.413,3.413,0,0,0,3.4-3.4,3.18,3.18,0,0,0-1.457-2.751,5.485,5.485,0,0,1,4.855-9.711,3.138,3.138,0,0,0,2.913-.486,3.889,3.889,0,0,0,1.457-2.751,3.448,3.448,0,0,0-.647-1.942,5.193,5.193,0,0,1-.486-5.665,5.427,5.427,0,0,1,8.092-1.942,3.512,3.512,0,0,0,3.561.324,3.592,3.592,0,0,0,1.942-2.913,2.754,2.754,0,0,0-.162-1.133,5.657,5.657,0,0,1,.647-4.855,5.452,5.452,0,0,1,4.532-2.266,5.373,5.373,0,0,1,4.37,2.266,3.364,3.364,0,0,0,3.722,1.295,3.257,3.257,0,0,0,2.266-3.237,5.351,5.351,0,0,1,4.694-5.5,5.56,5.56,0,0,1,6.15,3.723,3.168,3.168,0,0,0,3.237,2.266,3.517,3.517,0,0,0,3.237-2.266A5.457,5.457,0,0,1,291.408,77.2a3.382,3.382,0,0,0,.971,2.428,3.568,3.568,0,0,0,2.428.971,2.986,2.986,0,0,0,2.751-1.457,5.613,5.613,0,0,1,6.15-2.1,5.54,5.54,0,0,1,3.884,5.179,5.819,5.819,0,0,1-.324,1.78,3.544,3.544,0,0,0,.486,3.075,3.338,3.338,0,0,0,4.694.809,5.169,5.169,0,0,1,5.665-.486,5.556,5.556,0,0,1,3.075,5.017,4.948,4.948,0,0,1-1.133,3.237,3.183,3.183,0,0,0-.324,3.561,3.592,3.592,0,0,0,2.913,1.942,3.16,3.16,0,0,0,1.133-.162,5.2,5.2,0,0,1,4.855.809,5.672,5.672,0,0,1,2.266,4.532,5.373,5.373,0,0,1-2.266,4.37,3.18,3.18,0,0,0-1.457,2.751,3.413,3.413,0,0,0,3.4,3.4,4.889,4.889,0,0,1,3.884,1.457,5.748,5.748,0,0,1,1.618,4.046,5.205,5.205,0,0,1-3.884,5.179,3.168,3.168,0,0,0-2.266,3.237,3.37,3.37,0,0,0,2.266,3.237,5.457,5.457,0,0,1-1.618,10.682,3.382,3.382,0,0,0-2.428.971,3.569,3.569,0,0,0-.971,2.428,3.18,3.18,0,0,0,1.457,2.751,5.613,5.613,0,0,1,2.1,6.15,5.54,5.54,0,0,1-5.179,3.884,5.818,5.818,0,0,1-1.78-.324,3.138,3.138,0,0,0-2.913.486,3.18,3.18,0,0,0-1.457,2.751,3.448,3.448,0,0,0,.647,1.942,5.193,5.193,0,0,1,.486,5.665,5.57,5.57,0,0,1-8.254,1.942,3.183,3.183,0,0,0-3.561-.324,3.592,3.592,0,0,0-1.942,2.913,3.16,3.16,0,0,0,.162,1.133,5.577,5.577,0,0,1-.647,4.855,5.452,5.452,0,0,1-4.532,2.266,5.374,5.374,0,0,1-4.37-2.266,3.364,3.364,0,0,0-3.722-1.295,3.257,3.257,0,0,0-2.266,3.237C291.893,186.936,288.98,188.878,286.229,188.878Zm-8.416-8.254a5.205,5.205,0,0,1,5.179,3.884,3.169,3.169,0,0,0,3.237,2.266,3.223,3.223,0,0,0,3.4-3.4,5.249,5.249,0,0,1,3.722-5.179,5.373,5.373,0,0,1,6.15,1.942,3.321,3.321,0,0,0,2.59,1.457A3.461,3.461,0,0,0,305,180.138a3.581,3.581,0,0,0,.486-3.075,5.819,5.819,0,0,1-.324-1.78,5.321,5.321,0,0,1,3.075-4.855,5.142,5.142,0,0,1,5.665.486,3.283,3.283,0,0,0,5.017-1.295,2.986,2.986,0,0,0-.324-3.4,6.024,6.024,0,0,1-1.133-3.237,5.672,5.672,0,0,1,2.266-4.532,5.793,5.793,0,0,1,4.855-.809,3.44,3.44,0,0,0,4.37-2.266,3.089,3.089,0,0,0-1.295-3.723,5.161,5.161,0,0,1-2.266-4.37,6.386,6.386,0,0,1,1.618-4.046,4.89,4.89,0,0,1,3.884-1.457,3.418,3.418,0,0,0,1.133-6.636,5.54,5.54,0,0,1-3.884-5.179,5.205,5.205,0,0,1,3.884-5.179,3.169,3.169,0,0,0,2.266-3.237,3.676,3.676,0,0,0-.971-2.59,3.029,3.029,0,0,0-2.266-.809,5.49,5.49,0,0,1-5.665-5.5,5.161,5.161,0,0,1,2.266-4.37,3.321,3.321,0,0,0,1.457-2.59,3.461,3.461,0,0,0-1.457-2.913,3.581,3.581,0,0,0-3.075-.486,5.819,5.819,0,0,1-1.78.324,5.321,5.321,0,0,1-4.855-3.075,5.142,5.142,0,0,1,.486-5.665,3.11,3.11,0,0,0,.647-1.942,3.627,3.627,0,0,0-1.942-3.075,2.986,2.986,0,0,0-3.4.324,5.462,5.462,0,0,1-7.769-1.295,5.793,5.793,0,0,1-.809-4.855,2.753,2.753,0,0,0,.162-1.133,3.333,3.333,0,0,0-2.428-3.075,3.156,3.156,0,0,0-3.723,1.295,5.161,5.161,0,0,1-4.37,2.266,6.386,6.386,0,0,1-4.046-1.618,4.89,4.89,0,0,1-1.457-3.884,3.418,3.418,0,0,0-6.636-1.133,5.54,5.54,0,0,1-5.179,3.884,5.205,5.205,0,0,1-5.179-3.884,3.188,3.188,0,0,0-3.722-2.266,3.248,3.248,0,0,0-2.913,3.4,5.249,5.249,0,0,1-3.723,5.179,5.373,5.373,0,0,1-6.15-1.942,3.321,3.321,0,0,0-2.59-1.457,3.461,3.461,0,0,0-2.913,1.457,3.336,3.336,0,0,0-.486,2.913,6.884,6.884,0,0,1,.324,1.78,5.321,5.321,0,0,1-3.075,4.855,5.17,5.17,0,0,1-5.665-.486,3.382,3.382,0,0,0-5.017,1.295,2.986,2.986,0,0,0,.324,3.4,6.024,6.024,0,0,1,1.133,3.237,5.672,5.672,0,0,1-2.266,4.532,5.224,5.224,0,0,1-4.855.647,3.439,3.439,0,0,0-4.37,2.266,3.089,3.089,0,0,0,1.295,3.723,5.161,5.161,0,0,1,2.266,4.37,5.451,5.451,0,0,1-5.5,5.5,3.41,3.41,0,0,0-1.133,6.636,5.54,5.54,0,0,1,3.884,5.179,5.205,5.205,0,0,1-3.884,5.179A3.169,3.169,0,0,0,221,138.381a3.309,3.309,0,0,0,3.4,3.4,5.4,5.4,0,0,1,3.075,9.873,3.321,3.321,0,0,0-1.457,2.59,3.461,3.461,0,0,0,1.457,2.913,3.154,3.154,0,0,0,3.075.324,5.588,5.588,0,0,1,6.636,2.751,5.142,5.142,0,0,1-.486,5.665,3.11,3.11,0,0,0-.647,1.942A3.627,3.627,0,0,0,238,170.913a3.318,3.318,0,0,0,3.4-.324,5.655,5.655,0,0,1,7.769,1.295,5.793,5.793,0,0,1,.809,4.855,2.755,2.755,0,0,0-.162,1.133,3.388,3.388,0,0,0,6.15,1.78,5.161,5.161,0,0,1,4.37-2.266,6.386,6.386,0,0,1,4.046,1.618,4.889,4.889,0,0,1,1.457,3.884,3.387,3.387,0,0,0,6.636.971A6.129,6.129,0,0,1,277.813,180.624Zm0-33.017a17.48,17.48,0,1,1,17.48-17.48A17.51,17.51,0,0,1,277.813,147.607Zm0-33.017a15.376,15.376,0,1,0,15.376,15.376A15.369,15.369,0,0,0,277.813,114.59Z" transform="translate(-218.9 -71.7)" fill="#11877e"/>
      </g>
      <path id="Path_1487" data-name="Path 1487" d="M287.177,158.751h5.665a2.213,2.213,0,0,1,1.295,4.046l-4.532,3.237a2.307,2.307,0,0,0,2.1,4.046l5.341-1.78a2.33,2.33,0,0,1,2.59,3.561l-3.237,4.532a2.331,2.331,0,0,0,3.237,3.237l4.532-3.237a2.33,2.33,0,0,1,3.561,2.59l-1.78,5.341a2.312,2.312,0,0,0,4.046,2.1l3.237-4.532a2.237,2.237,0,0,1,4.046,1.295v5.665a2.224,2.224,0,0,0,4.37.647l1.78-5.341a2.3,2.3,0,0,1,4.37,0l1.78,5.341a2.233,2.233,0,0,0,4.37-.647V183.19A2.213,2.213,0,0,1,338,181.9l3.237,4.532a2.307,2.307,0,0,0,4.046-2.1l-1.78-5.341a2.33,2.33,0,0,1,3.561-2.59l4.532,3.237a2.331,2.331,0,0,0,3.237-3.237l-3.237-4.532a2.33,2.33,0,0,1,2.59-3.561l5.341,1.78a2.312,2.312,0,0,0,2.1-4.046L357.1,162.8a2.237,2.237,0,0,1,1.295-4.046h5.665a2.224,2.224,0,0,0,.647-4.37l-5.341-1.78a2.3,2.3,0,0,1,0-4.37l5.341-1.78a2.233,2.233,0,0,0-.647-4.37H358.39a2.213,2.213,0,0,1-1.295-4.046l4.532-3.237a2.307,2.307,0,0,0-2.1-4.046l-5.341,1.78a2.33,2.33,0,0,1-2.59-3.561l3.237-4.532a2.331,2.331,0,0,0-3.237-3.237l-4.532,3.237a2.33,2.33,0,0,1-3.561-2.59l1.78-5.341a2.312,2.312,0,0,0-4.046-2.1L338,118.937a2.237,2.237,0,0,1-4.046-1.295v-5.665a2.224,2.224,0,0,0-4.37-.647l-1.78,5.341a2.3,2.3,0,0,1-4.37,0l-1.78-5.341a2.233,2.233,0,0,0-4.37.647v5.665a2.213,2.213,0,0,1-4.046,1.295L310,114.405a2.307,2.307,0,0,0-4.046,2.1l1.78,5.341a2.33,2.33,0,0,1-3.561,2.59L299.64,121.2c-2.1-1.618-4.694,1.133-3.237,3.237l3.237,4.532a2.33,2.33,0,0,1-2.59,3.561l-5.341-1.78a2.312,2.312,0,0,0-2.1,4.046l4.532,3.237a2.237,2.237,0,0,1-1.295,4.046h-5.665c-2.59,0-3.237,3.723-.647,4.37l5.341,1.78a2.3,2.3,0,0,1,0,4.37l-5.341,1.78A2.224,2.224,0,0,0,287.177,158.751Zm21.849-8.254a16.185,16.185,0,1,1,16.185,16.185A16.232,16.232,0,0,1,309.027,150.5Z" transform="translate(0.588 -48.209)" fill="#ffca22"/>
      <g id="Group_1192" data-name="Group 1192" transform="translate(228.206 130.098)">
        <rect id="Rectangle_326" data-name="Rectangle 326" width="15.376" height="48.878" transform="translate(24.927 48.878) rotate(180)" fill="#11877e"/>
        <path id="Path_1488" data-name="Path 1488" d="M249.5,181.5c5.827,6.8,11.653,13.433,17.48,20.231,5.5-6.8,11.168-13.433,16.67-20.231Z" transform="translate(-249.5 -133.889)" fill="#11877e"/>
      </g>
      <path id="Path_1489" data-name="Path 1489" d="M310.5,379.036c7.121,2.266,14.566,0,18.127-5.179,4.855-6.8,2.913-17.8-5.827-23.306-7.283-6.15-14.4-12.3-21.688-18.451-3.884,11.006-7.931,22.173-11.815,33.179.971-.486,5.826-3.075,11.329-1.295C306.456,366.088,310.5,372.076,310.5,379.036Z" transform="translate(3.321 89.352)" fill="#00ac9f"/>
      <path id="Path_1490" data-name="Path 1490" d="M235.336,391.895c3.884,6.312,11.006,9.549,17.156,8.092,8.092-1.942,13.919-11.491,11.006-21.526-1.295-9.387-2.751-18.774-4.046-28.162-10.2,5.665-20.555,11.491-30.751,17.156,1.133.324,6.474,1.618,9.387,6.474C241,379.433,240.029,386.554,235.336,391.895Z" transform="translate(-34.159 100.608)" fill="#00ac9f"/>
      <g id="Group_1193" data-name="Group 1193" transform="translate(328.896 430.374)">
        <path id="Path_1491" data-name="Path 1491" d="M324.508,355.719a2.951,2.951,0,0,0,1.78-3.723l-4.532-12.462a2.918,2.918,0,0,0-5.5,1.942l4.532,12.462A3.021,3.021,0,0,0,324.508,355.719Z" transform="translate(-308.992 -337.613)" fill="#f4f4f7"/>
        <path id="Path_1492" data-name="Path 1492" d="M320.108,358.119a2.951,2.951,0,0,0,1.78-3.722l-4.532-12.462a2.918,2.918,0,1,0-5.5,1.942l4.532,12.462A2.951,2.951,0,0,0,320.108,358.119Z" transform="translate(-311.713 -336.128)" fill="#f4f4f7"/>
      </g>
      <g id="Group_1194" data-name="Group 1194" transform="translate(224.391 477.008)">
        <path id="Path_1493" data-name="Path 1493" d="M253.5,385.363a2.952,2.952,0,0,0,3.884-1.295l5.827-11.977a2.9,2.9,0,0,0-5.179-2.59l-5.827,11.977A2.952,2.952,0,0,0,253.5,385.363Z" transform="translate(-244.185 -365.498)" fill="#f4f4f7"/>
        <path id="Path_1494" data-name="Path 1494" d="M248.692,383.863a2.952,2.952,0,0,0,3.884-1.295l5.827-11.977a2.9,2.9,0,0,0-5.179-2.59L247.4,379.979A3.113,3.113,0,0,0,248.692,383.863Z" transform="translate(-247.143 -366.426)" fill="#f4f4f7"/>
      </g>
    </g>
    <g id="Group_1202" data-name="Group 1202" transform="translate(76.4 597.177)">
      <g id="Group_1196" data-name="Group 1196">
        <path id="Path_1495" data-name="Path 1495" d="M87.891,393.366H77.533a1.133,1.133,0,0,1,0-2.266H87.891a1.133,1.133,0,0,1,0,2.266Z" transform="translate(-76.4 -391.1)" fill="#232996"/>
      </g>
      <g id="Group_1197" data-name="Group 1197" transform="translate(18.451)">
        <path id="Path_1496" data-name="Path 1496" d="M96.863,393.366H88.933a1.133,1.133,0,0,1,0-2.266h7.931A1.106,1.106,0,0,1,98,392.233,1.363,1.363,0,0,1,96.863,393.366Z" transform="translate(-87.8 -391.1)" fill="#232996"/>
      </g>
      <g id="Group_1198" data-name="Group 1198" transform="translate(33.341)">
        <path id="Path_1497" data-name="Path 1497" d="M494.66,393.366H98.133a1.133,1.133,0,0,1,0-2.266H494.66a1.106,1.106,0,0,1,1.133,1.133A1.363,1.363,0,0,1,494.66,393.366Z" transform="translate(-97 -391.1)" fill="#232996"/>
      </g>
      <g id="Group_1199" data-name="Group 1199" transform="translate(437.151)">
        <path id="Path_1498" data-name="Path 1498" d="M362.847,393.366H347.633a1.133,1.133,0,0,1,0-2.266h15.214a1.133,1.133,0,0,1,0,2.266Z" transform="translate(-346.5 -391.1)" fill="#232996"/>
      </g>
      <g id="Group_1200" data-name="Group 1200" transform="translate(455.926)">
        <path id="Path_1499" data-name="Path 1499" d="M365.545,393.366h-6.312a1.133,1.133,0,1,1,0-2.266h6.312a1.133,1.133,0,1,1,0,2.266Z" transform="translate(-358.1 -391.1)" fill="#232996"/>
      </g>
      <g id="Group_1201" data-name="Group 1201" transform="translate(469.521)">
        <path id="Path_1500" data-name="Path 1500" d="M378.477,393.366H367.633a1.133,1.133,0,1,1,0-2.266h10.844a1.106,1.106,0,0,1,1.133,1.133A1.363,1.363,0,0,1,378.477,393.366Z" transform="translate(-366.5 -391.1)" fill="#232996"/>
      </g>
    </g>
    <g id="Group_1203" data-name="Group 1203" transform="translate(452.373 57.9)">
      <path id="Path_1501" data-name="Path 1501" d="M308.7,87.194h13.6c-1.78-9.711-3.722-19.584-5.5-29.294C314.041,67.611,311.29,77.322,308.7,87.194Z" transform="translate(-308.7 -57.9)" fill="#00ac9f"/>
      <path id="Path_1502" data-name="Path 1502" d="M308.7,76h13.6c-1.78,9.711-3.722,19.584-5.5,29.294C314.041,95.422,311.29,85.711,308.7,76Z" transform="translate(-308.7 -46.706)" fill="#00ac9f"/>
    </g>
    <g id="Group_1204" data-name="Group 1204" transform="translate(438.13 80.397)">
      <path id="Path_1503" data-name="Path 1503" d="M313.5,71.8V85.4c7.283-1.78,14.566-3.723,22.011-5.5C328.228,77.141,320.945,74.39,313.5,71.8Z" transform="translate(-291.489 -71.8)" fill="#00ac9f"/>
      <path id="Path_1504" data-name="Path 1504" d="M321.911,71.8V85.4c-7.283-1.78-14.566-3.723-22.011-5.5C307.345,77.141,314.628,74.39,321.911,71.8Z" transform="translate(-299.9 -71.8)" fill="#00ac9f"/>
    </g>
    <g id="Group_1205" data-name="Group 1205" transform="translate(244.074 101.761)">
      <path id="Path_1505" data-name="Path 1505" d="M180,114.294h13.6c-1.78-9.711-3.723-19.584-5.5-29.294C185.341,94.711,182.59,104.584,180,114.294Z" transform="translate(-180 -85)" fill="#00ac9f"/>
      <path id="Path_1506" data-name="Path 1506" d="M180,103.1h13.6c-1.78,9.711-3.723,19.584-5.5,29.294C185.341,122.522,182.59,112.811,180,103.1Z" transform="translate(-180 -73.806)" fill="#00ac9f"/>
    </g>
    <g id="Group_1206" data-name="Group 1206" transform="translate(229.994 124.258)">
      <path id="Path_1507" data-name="Path 1507" d="M184.9,98.9v13.6c7.283-1.78,14.566-3.723,22.011-5.5C199.466,104.241,192.183,101.651,184.9,98.9Z" transform="translate(-162.889 -98.9)" fill="#00ac9f"/>
      <path id="Path_1508" data-name="Path 1508" d="M193.311,98.9v13.6c-7.283-1.78-14.566-3.723-22.011-5.5C178.583,104.241,186.028,101.651,193.311,98.9Z" transform="translate(-171.3 -98.9)" fill="#00ac9f"/>
    </g>
    <g id="Group_1207" data-name="Group 1207" transform="translate(197.3 167.147)">
      <path id="Path_1509" data-name="Path 1509" d="M151.1,140.776h7.121c-.971-5.179-1.942-10.2-2.913-15.376C153.851,130.417,152.557,135.6,151.1,140.776Z" transform="translate(-151.1 -125.4)" fill="#00ac9f"/>
      <path id="Path_1510" data-name="Path 1510" d="M151.1,134.9h7.121c-.971,5.179-1.942,10.2-2.913,15.376C153.851,145.1,152.557,140.079,151.1,134.9Z" transform="translate(-151.1 -119.524)" fill="#00ac9f"/>
    </g>
    <g id="Group_1208" data-name="Group 1208" transform="translate(190.017 178.962)">
      <path id="Path_1511" data-name="Path 1511" d="M153.7,132.7v7.121c3.884-.971,7.769-1.942,11.491-2.913C161.307,135.451,157.584,134.157,153.7,132.7Z" transform="translate(-142.209 -132.7)" fill="#00ac9f"/>
      <path id="Path_1512" data-name="Path 1512" d="M158.091,132.7v7.121c-3.884-.971-7.769-1.942-11.491-2.913C150.323,135.451,154.207,134.157,158.091,132.7Z" transform="translate(-146.6 -132.7)" fill="#00ac9f"/>
    </g>
    <g id="Group_1209" data-name="Group 1209" transform="translate(520.187 104.189)">
      <path id="Path_1513" data-name="Path 1513" d="M350.6,101.066h6.8c-.971-4.855-1.78-9.711-2.751-14.566C353.19,91.355,351.895,96.211,350.6,101.066Z" transform="translate(-350.6 -86.5)" fill="#00ac9f"/>
      <path id="Path_1514" data-name="Path 1514" d="M350.6,95.5h6.8c-.971,4.855-1.78,9.711-2.751,14.566C353.19,105.211,351.895,100.355,350.6,95.5Z" transform="translate(-350.6 -80.934)" fill="#00ac9f"/>
    </g>
    <g id="Group_1210" data-name="Group 1210" transform="translate(513.066 115.356)">
      <path id="Path_1515" data-name="Path 1515" d="M353,93.4v6.8c3.722-.971,7.283-1.78,11.006-2.751C360.445,96.151,356.722,94.695,353,93.4Z" transform="translate(-341.994 -93.4)" fill="#00ac9f"/>
      <path id="Path_1516" data-name="Path 1516" d="M357.206,93.4v6.8c-3.723-.971-7.283-1.78-11.006-2.751C349.922,96.151,353.645,94.695,357.206,93.4Z" transform="translate(-346.2 -93.4)" fill="#00ac9f"/>
    </g>
  </g>
</svg>
