<svg xmlns="http://www.w3.org/2000/svg" width="30" height="30" viewBox="0 0 30 30">
  <g id="Group_2" data-name="Group 2" transform="translate(-1250 -59)">
    <circle id="Ellipse_1" data-name="Ellipse 1" cx="15" cy="15" r="15" transform="translate(1250 59)" fill="#a9dffd"/>
    <g id="vuesax_linear_user-square" data-name="vuesax/linear/user-square" transform="translate(507 -124)">
      <g id="user-square" transform="translate(748 188)">
        <path id="Vector" d="M10.745,4.069A9.758,9.758,0,0,1,8,4.4H2.747A9.758,9.758,0,0,1,0,4.069C.192,1.794,2.529,0,5.372,0S10.552,1.794,10.745,4.069Z" transform="translate(5.127 14.849)" fill="none" stroke="#019ef6" stroke-linecap="round" stroke-linejoin="round" stroke-width="1"/>
        <path id="Vector-2" data-name="Vector" d="M11.375,0H6.125C1.75,0,0,1.75,0,6.125v5.25c0,3.308,1,5.119,3.378,5.792C3.57,14.892,5.906,13.1,8.75,13.1s5.18,1.794,5.372,4.069c2.38-.674,3.378-2.485,3.378-5.792V6.125C17.5,1.75,15.75,0,11.375,0ZM8.75,10.649a3.137,3.137,0,1,1,3.133-3.141A3.137,3.137,0,0,1,8.75,10.649Z" transform="translate(1.75 1.75)" fill="none" stroke="#019ef6" stroke-linecap="round" stroke-linejoin="round" stroke-width="1"/>
        <path id="Vector-3" data-name="Vector" d="M6.265,3.133A3.133,3.133,0,1,1,3.133,0,3.137,3.137,0,0,1,6.265,3.133Z" transform="translate(7.367 6.125)" fill="none" stroke="#019ef6" stroke-linecap="round" stroke-linejoin="round" stroke-width="1"/>
        <path id="Vector-4" data-name="Vector" d="M0,0H21V21H0Z" fill="none" opacity="0"/>
      </g>
    </g>
  </g>
</svg>
