<svg xmlns="http://www.w3.org/2000/svg" width="30" height="30" viewBox="0 0 30 30">
  <g id="Group_2" data-name="Group 2" transform="translate(-1250 -59)">
    <circle id="Ellipse_1" data-name="Ellipse 1" cx="15" cy="15" r="15" transform="translate(1250 59)" fill="#a9dffd"/>
    <g id="vuesax_linear_people" data-name="vuesax/linear/people" transform="translate(635 -188)">
      <g id="people" transform="translate(620 252)">
        <g id="Group" transform="translate(13.414 1.75)">
          <path id="Vector" d="M2.336,4.515a.53.53,0,0,0-.166,0,2.262,2.262,0,1,1,.166,0Z" fill="none" stroke="#019ef6" stroke-linecap="round" stroke-linejoin="round" stroke-width="1"/>
          <path id="Vector-2" data-name="Vector" d="M.026,4.323a4.93,4.93,0,0,0,3.448-.63A1.672,1.672,0,0,0,3.474.7,4.961,4.961,0,0,0,0,.079" transform="translate(1.409 6.562)" fill="none" stroke="#019ef6" stroke-linecap="round" stroke-linejoin="round" stroke-width="1"/>
        </g>
        <g id="Group-2" data-name="Group" transform="translate(1.752 1.75)">
          <path id="Vector-3" data-name="Vector" d="M2.179,4.515a.53.53,0,0,1,.166,0,2.262,2.262,0,1,0-.166,0Z" transform="translate(1.293)" fill="none" stroke="#019ef6" stroke-linecap="round" stroke-linejoin="round" stroke-width="1"/>
          <path id="Vector-4" data-name="Vector" d="M4.373,4.323a4.93,4.93,0,0,1-3.447-.63A1.672,1.672,0,0,1,.925.7,4.961,4.961,0,0,1,4.4.079" transform="translate(0 6.562)" fill="none" stroke="#019ef6" stroke-linecap="round" stroke-linejoin="round" stroke-width="1"/>
        </g>
        <g id="Group-3" data-name="Group" transform="translate(7.028 8.286)">
          <path id="Vector-5" data-name="Vector" d="M2.336,4.515a.53.53,0,0,0-.166,0,2.262,2.262,0,1,1,.166,0Z" transform="translate(1.135)" fill="none" stroke="#019ef6" stroke-linecap="round" stroke-linejoin="round" stroke-width="1"/>
          <path id="Vector-6" data-name="Vector" d="M.925.7a1.672,1.672,0,0,0,0,2.992,4.968,4.968,0,0,0,5.092,0A1.672,1.672,0,0,0,6.018.7,5.008,5.008,0,0,0,.925.7Z" transform="translate(0 6.576)" fill="none" stroke="#019ef6" stroke-linecap="round" stroke-linejoin="round" stroke-width="1"/>
        </g>
        <path id="Vector-7" data-name="Vector" d="M0,0H21V21H0Z" fill="none" opacity="0"/>
      </g>
    </g>
  </g>
</svg>
